# xmcd
#
# Track frame offsets:
#   182
#   12315
#   31775
#   47342
#   66172
#   81235
#   92270
#   104375
#   123510
#   153857
#   174902
#   187692
#   201777
#   213667
#   232085
#   249415
#
# Disc length: 3534 seconds
#
# Revision: 0
# Processed by: cddbd v1.5.1PL0 Copyright (c) Steve Scherf et al.
# Submitted via: Media_Universe 3.0
#
DISCID=c20dcc10
DTITLE=Various Artist - Round Tower Music Volume Two
DYEAR=1900
DGENRE=Country
TTITLE0=Junkyard Heart - Katy Moffatt
TTITLE1=Grand Canyon - Steiner Allerington and Tom Pacheco
TTITLE2=I Ain't Over You - Josie Kuhn
TTITLE3=Restless - Albert Lee and Hogan's Heroes
TTITLE4=I Just Wanna See You So Bad - Borrence Whitfield and Tom Russell
TTITLE5=Don't Drive The Blues From my Heart - John B. Spencer
TTITLE6=Feeling Seventeen Again - Sylvia Tyson
TTITLE7=Happy Like This - Mick Hanly
TTITLE8=The Wind That Rocks My Cradle - Kieran Halpin
TTITLE9=Trust Your Heart Always - Tom Pcheco
TTITLE10=She's Always Been A Hotel - Gary Hall
TTITLE11=Walik' On The Moon - Barrowside
TTITLE12=Goin' Back To California - Steve Young
TTITLE13=Coney Island Moon - Tom Russell
TTITLE14=On Primrose Hill - Suzanne Chawner
TTITLE15=Carry Me Away - Nelson Brothers
EXTD=
EXTT0=
EXTT1=
EXTT2=
EXTT3=
EXTT4=
EXTT5=
EXTT6=
EXTT7=
EXTT8=
EXTT9=
EXTT10=
EXTT11=
EXTT12=
EXTT13=
EXTT14=
EXTT15=
PLAYORDER=
